<mxfile host="app.diagrams.net" agent="Mozilla/5.0 (Windows NT 10.0; Win64; x64) AppleWebKit/537.36 (KHTML, like Gecko) Chrome/134.0.0.0 Safari/537.36 Edg/134.0.0.0" version="26.0.5">
  <diagram name="Page-1" id="aaaa8250-4180-3840-79b5-4cada1eebb92">
    <mxGraphModel grid="1" page="1" gridSize="10" guides="1" tooltips="1" connect="1" arrows="1" fold="1" pageScale="1" pageWidth="850" pageHeight="1100" background="none" math="0" shadow="0">
      <root>
        <mxCell id="0" />
        <mxCell id="1" parent="0" />
        <mxCell id="1a8abee3a6cfdf20-3" value="" style="edgeStyle=isometricEdgeStyle;endArrow=none;html=1;labelBackgroundColor=none;strokeWidth=5;fontFamily=Verdana;fontSize=12" edge="1" parent="1">
          <mxGeometry width="50" height="100" relative="1" as="geometry">
            <mxPoint x="352" y="1308" as="sourcePoint" />
            <mxPoint x="262" y="1068" as="targetPoint" />
            <Array as="points">
              <mxPoint x="302" y="1208" />
            </Array>
          </mxGeometry>
        </mxCell>
        <mxCell id="ihmqjAQJKLGvuYoyKk4O-6" value="&lt;font style=&quot;font-size: 50px;&quot;&gt;RDP (Port 3389)&lt;/font&gt;" style="edgeLabel;html=1;align=center;verticalAlign=middle;resizable=0;points=[];" connectable="0" vertex="1" parent="1a8abee3a6cfdf20-3">
          <mxGeometry x="0.3825" y="-16" relative="1" as="geometry">
            <mxPoint as="offset" />
          </mxGeometry>
        </mxCell>
        <mxCell id="ihmqjAQJKLGvuYoyKk4O-2" value="" style="edgeStyle=orthogonalEdgeStyle;rounded=0;orthogonalLoop=1;jettySize=auto;html=1;" edge="1" parent="1" source="1a8abee3a6cfdf20-4">
          <mxGeometry relative="1" as="geometry">
            <mxPoint x="278.75" y="1653" as="targetPoint" />
          </mxGeometry>
        </mxCell>
        <mxCell id="1a8abee3a6cfdf20-4" value="" style="verticalLabelPosition=bottom;html=1;verticalAlign=top;strokeWidth=1;dashed=0;shape=mxgraph.aws3d.dynamoDb;fillColor=#ECECEC;strokeColor=#5E5E5E;aspect=fixed;rounded=1;shadow=0;comic=0;fontSize=12" vertex="1" parent="1">
          <mxGeometry x="188" y="1298" width="181.5" height="210" as="geometry" />
        </mxCell>
        <mxCell id="ihmqjAQJKLGvuYoyKk4O-16" value="" style="edgeStyle=orthogonalEdgeStyle;rounded=0;orthogonalLoop=1;jettySize=auto;html=1;strokeWidth=6;" edge="1" parent="1" source="1a8abee3a6cfdf20-6" target="ihmqjAQJKLGvuYoyKk4O-14">
          <mxGeometry relative="1" as="geometry" />
        </mxCell>
        <mxCell id="1a8abee3a6cfdf20-6" value="" style="verticalLabelPosition=bottom;html=1;verticalAlign=top;strokeWidth=1;dashed=0;shape=mxgraph.aws3d.elasticLoadBalancing;fillColor=#ECECEC;strokeColor=#5E5E5E;aspect=fixed;rounded=1;shadow=0;comic=0;fontSize=12;" vertex="1" parent="1">
          <mxGeometry x="312" y="948" width="92" height="88.17" as="geometry" />
        </mxCell>
        <mxCell id="1a8abee3a6cfdf20-25" value="" style="verticalLabelPosition=bottom;html=1;verticalAlign=top;strokeWidth=1;dashed=0;shape=mxgraph.aws3d.arrowhead;aspect=fixed;rounded=1;shadow=0;comic=0;fillColor=none;fontFamily=Verdana;fontSize=12;fontColor=#000000;flipV=1;" vertex="1" parent="1">
          <mxGeometry x="341" y="1291" width="39" height="23" as="geometry" />
        </mxCell>
        <mxCell id="1a8abee3a6cfdf20-1" value="" style="verticalLabelPosition=bottom;html=1;verticalAlign=top;strokeWidth=1;dashed=0;shape=mxgraph.aws3d.secureConnection;fillColor=#000000;strokeColor=#ffffff;aspect=fixed;rounded=1;shadow=0;comic=0;fontSize=12" vertex="1" parent="1">
          <mxGeometry x="203" y="1068" width="56.99999999999999" height="34" as="geometry" />
        </mxCell>
        <mxCell id="d5ac148becb70bc-3" value="" style="verticalLabelPosition=bottom;html=1;verticalAlign=top;strokeWidth=1;dashed=0;shape=mxgraph.aws3d.rdsMaster;fillColor=#ECECEC;strokeColor=#5E5E5E;aspect=fixed;rounded=1;shadow=0;comic=0;fontFamily=Verdana;fontSize=12" vertex="1" parent="1">
          <mxGeometry x="1652" y="1508" width="123" height="133" as="geometry" />
        </mxCell>
        <mxCell id="d5ac148becb70bc-14" value="" style="edgeStyle=isometricEdgeStyle;endArrow=none;html=1;labelBackgroundColor=none;strokeWidth=5;fontFamily=Verdana;fontSize=12" edge="1" parent="1">
          <mxGeometry width="50" height="100" relative="1" as="geometry">
            <mxPoint x="462" y="1368" as="sourcePoint" />
            <mxPoint x="1602" y="1668" as="targetPoint" />
            <Array as="points">
              <mxPoint x="902" y="1558" />
            </Array>
          </mxGeometry>
        </mxCell>
        <mxCell id="ihmqjAQJKLGvuYoyKk4O-5" value="&lt;font style=&quot;font-size: 47px;&quot;&gt;RDP (Port 3389)&lt;/font&gt;" style="edgeLabel;html=1;align=center;verticalAlign=middle;resizable=0;points=[];" connectable="0" vertex="1" parent="d5ac148becb70bc-14">
          <mxGeometry x="0.7192" y="-4" relative="1" as="geometry">
            <mxPoint as="offset" />
          </mxGeometry>
        </mxCell>
        <mxCell id="d5ac148becb70bc-15" value="" style="verticalLabelPosition=bottom;html=1;verticalAlign=top;strokeWidth=1;dashed=0;shape=mxgraph.aws3d.arrowhead;aspect=fixed;rounded=1;shadow=0;comic=0;fillColor=none;fontFamily=Verdana;fontSize=12;fontColor=#000000;flipV=1;" vertex="1" parent="1">
          <mxGeometry x="443" y="1356" width="39" height="23" as="geometry" />
        </mxCell>
        <mxCell id="d5ac148becb70bc-16" value="" style="verticalLabelPosition=bottom;html=1;verticalAlign=top;strokeWidth=1;dashed=0;shape=mxgraph.aws3d.secureConnection;fillColor=#000000;strokeColor=#ffffff;aspect=fixed;rounded=1;shadow=0;comic=0;fontSize=12" vertex="1" parent="1">
          <mxGeometry x="1538" y="1668" width="56.99999999999999" height="34" as="geometry" />
        </mxCell>
        <mxCell id="ihmqjAQJKLGvuYoyKk4O-3" value="&lt;font style=&quot;font-size: 37px;&quot;&gt;AWS/ VPS Provider&lt;/font&gt;&lt;div&gt;&lt;font style=&quot;font-size: 37px;&quot;&gt;(EC2 Windows Server)&lt;/font&gt;&lt;/div&gt;&lt;div&gt;&lt;font style=&quot;font-size: 37px;&quot;&gt;- Static IP Assigned&lt;/font&gt;&lt;/div&gt;&lt;div&gt;&lt;font style=&quot;font-size: 37px;&quot;&gt;- RDP Enabled ( Multi-User)&lt;/font&gt;&lt;/div&gt;&lt;div&gt;&lt;font style=&quot;font-size: 37px;&quot;&gt;- Chrome Installed&lt;/font&gt;&lt;/div&gt;" style="text;html=1;align=center;verticalAlign=middle;whiteSpace=wrap;rounded=0;" vertex="1" parent="1">
          <mxGeometry x="10" y="1668" width="606.25" height="232" as="geometry" />
        </mxCell>
        <mxCell id="ihmqjAQJKLGvuYoyKk4O-21" value="" style="edgeStyle=orthogonalEdgeStyle;rounded=0;orthogonalLoop=1;jettySize=auto;html=1;" edge="1" parent="1" source="ihmqjAQJKLGvuYoyKk4O-7">
          <mxGeometry relative="1" as="geometry">
            <mxPoint x="1813.3000000000002" y="895.8000000000002" as="targetPoint" />
          </mxGeometry>
        </mxCell>
        <mxCell id="ihmqjAQJKLGvuYoyKk4O-7" value="" style="verticalLabelPosition=bottom;html=1;verticalAlign=top;strokeWidth=1;dashed=0;shape=mxgraph.aws3d.workflowService;fillColor=#ECECEC;strokeColor=#5E5E5E;aspect=fixed;rounded=1;shadow=0;comic=0;fontSize=12" vertex="1" parent="1">
          <mxGeometry x="1460" y="821.6" width="182.20000000000002" height="148.4" as="geometry" />
        </mxCell>
        <mxCell id="ihmqjAQJKLGvuYoyKk4O-11" value="" style="edgeStyle=orthogonalEdgeStyle;rounded=0;orthogonalLoop=1;jettySize=auto;html=1;entryX=0.209;entryY=0.051;entryDx=0;entryDy=0;entryPerimeter=0;strokeWidth=6;" edge="1" parent="1" source="ihmqjAQJKLGvuYoyKk4O-10">
          <mxGeometry relative="1" as="geometry">
            <mxPoint x="1724.0559999999996" y="1644.0169999999998" as="targetPoint" />
          </mxGeometry>
        </mxCell>
        <mxCell id="ihmqjAQJKLGvuYoyKk4O-10" value="&lt;font style=&quot;font-size: 57px;&quot;&gt;User 1&lt;/font&gt;&lt;div&gt;&lt;font style=&quot;font-size: 57px;&quot;&gt;- RDP login&lt;/font&gt;&lt;/div&gt;&lt;div&gt;&lt;font style=&quot;font-size: 57px;&quot;&gt;- Chrome&lt;/font&gt;&lt;span style=&quot;color: rgba(0, 0, 0, 0); font-family: monospace; font-size: 0px; text-align: start; text-wrap-mode: nowrap; background-color: transparent;&quot;&gt;%3CmxGraphModel%3E%3Croot%3E%3CmxCell%20id%3D%220%22%2F%3E%3CmxCell%20id%3D%221%22%20parent%3D%220%22%2F%3E%3CmxCell%20id%3D%222%22%20value%3D%22%22%20style%3D%22verticalLabelPosition%3Dbottom%3Bhtml%3D1%3BverticalAlign%3Dtop%3BstrokeWidth%3D1%3Bdashed%3D0%3Bshape%3Dmxgraph.aws3d.workflowService%3BfillColor%3D%23ECECEC%3BstrokeColor%3D%235E5E5E%3Baspect%3Dfixed%3Brounded%3D1%3Bshadow%3D0%3Bcomic%3D0%3BfontSize%3D12%22%20vertex%3D%221%22%20parent%3D%221%22%3E%3CmxGeometry%20x%3D%22511%22%20y%3D%22788%22%20width%3D%22182.20000000000002%22%20height%3D%22148.4%22%20as%3D%22geometry%22%2F%3E%3C%2FmxCell%3E%3C%2Froot%3E%3C%2FmxGraphModel%3E&lt;/span&gt;&lt;span style=&quot;font-size: 57px; background-color: transparent; color: light-dark(rgb(0, 0, 0), rgb(255, 255, 255));&quot;&gt;&amp;nbsp;on VPS&lt;/span&gt;&lt;/div&gt;&lt;div&gt;&lt;font style=&quot;font-size: 57px;&quot;&gt;- Linkedin Access&lt;/font&gt;&lt;/div&gt;" style="text;html=1;align=center;verticalAlign=middle;whiteSpace=wrap;rounded=0;" vertex="1" parent="1">
          <mxGeometry x="1620" y="1780" width="500" height="380" as="geometry" />
        </mxCell>
        <mxCell id="ihmqjAQJKLGvuYoyKk4O-14" value="&lt;font style=&quot;font-size: 57px;&quot;&gt;User 1&lt;/font&gt;&lt;div&gt;&lt;font style=&quot;font-size: 57px;&quot;&gt;- RDP login&lt;/font&gt;&lt;/div&gt;&lt;div&gt;&lt;font style=&quot;font-size: 57px;&quot;&gt;- Chrome&lt;/font&gt;&lt;span style=&quot;color: rgba(0, 0, 0, 0); font-family: monospace; font-size: 0px; text-align: start; text-wrap-mode: nowrap; background-color: transparent;&quot;&gt;%3CmxGraphModel%3E%3Croot%3E%3CmxCell%20id%3D%220%22%2F%3E%3CmxCell%20id%3D%221%22%20parent%3D%220%22%2F%3E%3CmxCell%20id%3D%222%22%20value%3D%22%22%20style%3D%22verticalLabelPosition%3Dbottom%3Bhtml%3D1%3BverticalAlign%3Dtop%3BstrokeWidth%3D1%3Bdashed%3D0%3Bshape%3Dmxgraph.aws3d.workflowService%3BfillColor%3D%23ECECEC%3BstrokeColor%3D%235E5E5E%3Baspect%3Dfixed%3Brounded%3D1%3Bshadow%3D0%3Bcomic%3D0%3BfontSize%3D12%22%20vertex%3D%221%22%20parent%3D%221%22%3E%3CmxGeometry%20x%3D%22511%22%20y%3D%22788%22%20width%3D%22182.20000000000002%22%20height%3D%22148.4%22%20as%3D%22geometry%22%2F%3E%3C%2FmxCell%3E%3C%2Froot%3E%3C%2FmxGraphModel%3E&lt;/span&gt;&lt;span style=&quot;font-size: 57px; background-color: transparent; color: light-dark(rgb(0, 0, 0), rgb(255, 255, 255));&quot;&gt;&amp;nbsp;on VPS&lt;/span&gt;&lt;/div&gt;&lt;div&gt;&lt;font style=&quot;font-size: 57px;&quot;&gt;- Linkedin Access&lt;/font&gt;&lt;/div&gt;" style="text;html=1;align=center;verticalAlign=middle;whiteSpace=wrap;rounded=0;" vertex="1" parent="1">
          <mxGeometry x="-130.5" y="470" width="500" height="380" as="geometry" />
        </mxCell>
        <mxCell id="ihmqjAQJKLGvuYoyKk4O-18" value="" style="endArrow=classic;html=1;rounded=0;entryX=-0.011;entryY=0.582;entryDx=0;entryDy=0;entryPerimeter=0;" edge="1" parent="1" target="ihmqjAQJKLGvuYoyKk4O-7">
          <mxGeometry width="50" height="50" relative="1" as="geometry">
            <mxPoint x="425" y="948" as="sourcePoint" />
            <mxPoint x="1430" y="860" as="targetPoint" />
          </mxGeometry>
        </mxCell>
        <mxCell id="ihmqjAQJKLGvuYoyKk4O-19" value="" style="endArrow=classic;html=1;rounded=0;" edge="1" parent="1" target="ihmqjAQJKLGvuYoyKk4O-7">
          <mxGeometry width="50" height="50" relative="1" as="geometry">
            <mxPoint x="1710" y="1490" as="sourcePoint" />
            <mxPoint x="1845" y="1160" as="targetPoint" />
          </mxGeometry>
        </mxCell>
        <mxCell id="ihmqjAQJKLGvuYoyKk4O-22" value="&lt;h1 style=&quot;margin-top: 0px;&quot;&gt;&lt;font style=&quot;font-size: 46px;&quot;&gt;LinkedIn Platform&lt;/font&gt;&lt;/h1&gt;&lt;div&gt;&lt;font style=&quot;font-size: 46px;&quot;&gt;- Secure login&lt;/font&gt;&lt;/div&gt;&lt;div&gt;&lt;span style=&quot;font-size: 46px;&quot;&gt;- Location Consistency&lt;/span&gt;&lt;/div&gt;&lt;div&gt;&lt;font style=&quot;font-size: 46px;&quot;&gt;&lt;br&gt;&lt;/font&gt;&lt;/div&gt;" style="text;html=1;whiteSpace=wrap;overflow=hidden;rounded=0;" vertex="1" parent="1">
          <mxGeometry x="1860" y="750" width="610" height="274.2" as="geometry" />
        </mxCell>
      </root>
    </mxGraphModel>
  </diagram>
</mxfile>
